<svg xmlns="http://www.w3.org/2000/svg" xmlns:svg="http://www.w3.org/2000/svg" id="svg3985" width="16" height="16" version="1.1"><metadata id="metadata3991"/><path id="path3808" d="m 11.937867,8.937027 v 3.937868 H 4.062132 V 8.937027 H 2.937027 v 3.937868 C 2.937027,13.493702 3.443324,14 4.062132,14 h 7.875735 c 0.618807,0 1.125105,-0.506298 1.125105,-1.125105 V 8.937027 Z M 8.562553,9.313938 10.019563,7.862552 10.812762,8.655751 7.999999,11.468513 5.187238,8.655751 5.980436,7.862552 7.437447,9.313938 V 5.480026 h 1.125106 z" style="fill:#c5c5c5;stroke-width:.56255251"/><g style="font-style:normal;font-weight:400;font-size:6.18409109px;line-height:1.25;font-family:sans-serif;letter-spacing:0;word-spacing:0;fill:#75beff;fill-opacity:1;stroke:none;stroke-width:.15460229" id="text22" aria-label="&lt;/&gt;"><path style="font-weight:700;fill:#75beff;stroke-width:.15460229" id="path106" d="M 3.7089271,3.3253413 V 2.3530379 L 6.8100313,1.1723838 V 1.8608471 L 4.2947247,2.8422092 6.8100313,3.8205517 v 0.6854437 z"/><path style="font-weight:700;fill:#75beff;stroke-width:.15460229" id="path108" d="M 7.1210476,5.007245 7.9997441,0.40239202 h 0.718659 L 7.8548045,5.007245 Z"/><path style="font-weight:700;fill:#75beff;stroke-width:.15460229" id="path110" d="M 9.0354585,4.5059954 V 3.8205517 L 11.547745,2.8422092 9.0354585,1.8608471 V 1.1723838 l 3.1011045,1.1806541 v 0.9723034 z"/></g></svg>