<svg xmlns="http://www.w3.org/2000/svg" xmlns:svg="http://www.w3.org/2000/svg" id="svg3985" width="16" height="16" version="1.1"><metadata id="metadata3991"/><g style="font-style:normal;font-weight:400;font-size:5.32112837px;line-height:1.25;font-family:sans-serif;letter-spacing:0;word-spacing:0;fill:#00539c;fill-opacity:1;stroke:none;stroke-width:.13302819" id="text3721" aria-label="HTML"><path style="font-style:normal;font-variant:normal;font-weight:700;font-stretch:normal;font-family:'Roboto Condensed';-inkscape-font-specification:'Roboto Condensed, Bold';fill:#00539c;stroke-width:.13302819" id="path4126" d="M 4.3456626,4.7897997 V 3.1711166 H 3.2206388 V 4.7897997 H 2.4541677 V 1.00681 H 3.2206388 V 2.537154 H 4.3456626 V 1.00681 h 0.7612747 v 3.7829897 z"/><path style="font-style:normal;font-variant:normal;font-weight:700;font-stretch:normal;font-family:'Roboto Condensed';-inkscape-font-specification:'Roboto Condensed, Bold';fill:#00539c;stroke-width:.13302819" id="path4128" d="M 5.4758827,1.6433708 V 1.00681 H 8.0974738 V 1.6433708 H 7.159521 V 4.7897997 H 6.3956481 V 1.6433708 Z"/><path style="font-style:normal;font-variant:normal;font-weight:700;font-stretch:normal;font-family:'Roboto Condensed';-inkscape-font-specification:'Roboto Condensed, Bold';fill:#00539c;stroke-width:.13302819" id="path4130" d="M 10.246191,3.740124 10.9581,1.00681 h 0.997712 V 4.7897997 H 11.18934 V 3.766106 l 0.07015,-1.5667189 -0.75348,2.5904126 H 9.9837722 L 9.2302922,2.1993871 9.3004437,3.766106 V 4.7897997 H 8.5339726 V 1.00681 h 0.9977116 z"/><path style="font-style:normal;font-variant:normal;font-weight:700;font-stretch:normal;font-family:'Roboto Condensed';-inkscape-font-specification:'Roboto Condensed, Bold';fill:#00539c;stroke-width:.13302819" id="path4132" d="M 14.670938,4.1558371 V 4.7897997 H 12.56639 V 1.00681 h 0.766472 v 3.1490271 z"/></g><path id="path3808" d="m 11.937867,8.937027 v 3.937868 H 4.062132 V 8.937027 H 2.937027 v 3.937868 C 2.937027,13.493702 3.443324,14 4.062132,14 h 7.875735 c 0.618807,0 1.125105,-0.506298 1.125105,-1.125105 V 8.937027 Z M 8.562553,9.313938 10.019563,7.862552 10.812762,8.655751 7.999999,11.468513 5.187238,8.655751 5.980436,7.862552 7.437447,9.313938 V 5.480026 h 1.125106 z" style="fill:#656565;stroke-width:.56255251"/></svg>